<svg id="Layer_1" data-name="Layer 1" xmlns="http://www.w3.org/2000/svg" viewBox="0 0 500 456.38"><defs><style>.cls-1{fill:#fff;}</style></defs><circle class="cls-1" cx="194.92" cy="211.31" r="78.65"/><path class="cls-1" d="M389.84,210c-.7-107-87.7-193.62-194.92-193.62C87.27,16.39,0,103.66,0,211.31S87.27,406.24,194.92,406.24q7.71,0,15.26-.59v.59H340.44a49.41,49.41,0,0,0,49.41-49.41V210Zm-342,1.3a147,147,0,1,1,147,147.05A147,147,0,0,1,47.88,211.31Z"/><path class="cls-1" d="M484.12,371v-.09H413.58a17.71,17.71,0,1,0,0,35.42h51v32.37a17.71,17.71,0,1,0,35.42,0V388.59A17.72,17.72,0,0,0,484.12,371Z"/><path class="cls-1" d="M392.12,129.84v0l42.13-10v0A191.8,191.8,0,0,0,347.16,0L324.45,36.87A148.66,148.66,0,0,1,392.12,129.84Z"/></svg>