<svg xmlns="http://www.w3.org/2000/svg" viewBox="0 0 2671.47 780.84"><defs><style>.cls-1{fill:#fff;}</style></defs><g id="Layer_2" data-name="Layer 2"><g id="Layer_2-2" data-name="Layer 2"><circle class="cls-1" cx="239.39" cy="259.52" r="96.59"/><path class="cls-1" d="M478.77,257.91C477.91,126.5,371.07,20.12,239.39,20.12,107.18,20.13,0,127.31,0,259.52s107.18,239.4,239.39,239.4q9.47,0,18.74-.73v.73h160a60.69,60.69,0,0,0,60.69-60.69h0V257.91Zm-420,1.59A180.54,180.54,0,1,1,239.29,440.1,180.54,180.54,0,0,1,58.75,259.5h0Z"/><path class="cls-1" d="M481.57,159.46h0l51.75-12.28h0A235.6,235.6,0,0,0,426.36,0L398.47,45.28A182.56,182.56,0,0,1,481.57,159.46Z"/><path class="cls-1" d="M594.56,455.64v-.11H507.93a21.75,21.75,0,0,0,0,43.5h62.63v39.75a21.76,21.76,0,0,0,43.51,0h0V477.24A21.77,21.77,0,0,0,594.56,455.64Z"/><path class="cls-1" d="M780.53,409q-30.37-13.28-47.71-37.68t-17.35-56.92h66.14q2.16,24.39,19.25,40.12t48,15.72q32,0,49.87-15.45T916.61,315q0-19-11.12-30.9a74.22,74.22,0,0,0-27.65-18.43q-16.53-6.51-45.81-14.1-36.87-9.75-59.9-19.79t-39.31-31.17q-16.26-21.14-16.26-56.38,0-32.54,16.26-56.93t45.54-37.4q29.28-13,67.77-13,54.75,0,89.72,27.37t38.76,75.09h-68.3q-1.63-20.6-19.52-35.24T839.62,89.45q-26.57,0-43.37,13.56t-16.8,39q0,17.36,10.57,28.46t26.83,17.62q16.27,6.51,44.46,14.1,37.41,10.31,61,20.6a101.66,101.66,0,0,1,40.12,31.71Q979,276,979,311.73a102.8,102.8,0,0,1-15.45,54.21q-15.45,25.49-45,40.93t-69.66,15.45Q810.89,422.32,780.53,409Z"/><path class="cls-1" d="M1156.77,129q27.09-14.1,61.26-14.1,39,0,71.29,19.25T1340,188.12q18.42,34.71,18.43,79.7T1340,348.32q-18.43,35.52-50.69,55.3T1218,423.41q-34.15,0-60.72-13.83t-43.37-34.42V560.57h-61.81V119.81h61.81v43.92Q1129.66,143.12,1156.77,129Zm126,85.38q-12.74-22.49-33.61-34.15a90.29,90.29,0,0,0-44.72-11.66,87.8,87.8,0,0,0-44.19,11.93q-20.88,11.94-33.61,34.7t-12.74,53.67q0,30.9,12.74,53.94t33.61,35a87.94,87.94,0,0,0,88.91-.27q20.86-12.19,33.61-35.51t12.74-54.21Q1295.55,236.91,1282.81,214.41Z"/><path class="cls-1" d="M1691.31,292.21H1463.07q2.72,35.79,26.57,57.47t58.55,21.68q49.88,0,70.48-41.74h66.68q-13.56,41.2-49.06,67.5t-88.1,26.29q-42.84,0-76.71-19.25T1418.34,350q-19.24-35-19.24-81.05t18.7-81q18.71-35,52.59-53.94t77.8-19q42.29,0,75.36,18.43a130.37,130.37,0,0,1,51.5,51.78q18.42,33.35,18.43,76.71A193.8,193.8,0,0,1,1691.31,292.21ZM1629,242.34q-.56-34.15-24.4-54.76T1545.48,167q-32,0-54.76,20.33t-27.1,55Z"/><path class="cls-1" d="M1752.3,187.85q18.71-35,51.77-53.94t75.9-19q54.21,0,89.73,25.75t48,73.46H1951q-8.13-22.21-26-34.69T1880,167q-38,0-60.45,26.83T1797,268.9q0,48.26,22.5,75.36t60.45,27.1q53.67,0,71-47.16h66.68q-13,45.54-48.79,72.37T1880,423.41q-42.83,0-75.9-19.25T1752.3,350q-18.71-35-18.71-81.05T1752.3,187.85Z"/><path class="cls-1" d="M2082.72,68.85q-11.38-11.38-11.38-28.19t11.38-28.19q11.39-11.39,28.2-11.39a37.63,37.63,0,0,1,27.64,11.39q11.39,11.38,11.39,28.19t-11.39,28.19a37.63,37.63,0,0,1-27.64,11.39Q2094.11,80.24,2082.72,68.85Zm58.55,51V418.53h-61.8V119.81Z"/><path class="cls-1" d="M2347.82,170.23h-55.29v248.3h-62.35V170.23h-35.24V119.81h35.24V98.67q0-51.49,27.38-75.09T2343.49,0V51.5q-28.2,0-39.58,10.57t-11.38,36.6v21.14h55.29Z"/><path class="cls-1" d="M2671.47,119.81,2488.23,558.94h-64L2485,413.65,2367.33,119.81h68.85l84,227.7,87.28-227.7Z"/><path class="cls-1" d="M771,688.86H750.93v90.21H728.28V688.86H715.47v-18.3h12.81v-7.7q0-18.71,9.94-27.28T769.44,627v18.71q-10.23,0-14.37,3.83t-4.14,13.3v7.7H771Z"/><path class="cls-1" d="M810.21,773.85a50.13,50.13,0,0,1-19.51-19.69q-7.1-12.7-7.09-29.46,0-16.53,7.3-29.33a50.18,50.18,0,0,1,19.89-19.7,60.83,60.83,0,0,1,56.32,0,50.39,50.39,0,0,1,19.9,19.7q7.28,12.79,7.29,29.33t-7.49,29.37a51.83,51.83,0,0,1-20.39,19.78,58.78,58.78,0,0,1-28.46,7A55.52,55.52,0,0,1,810.21,773.85Zm44-16.64a31.46,31.46,0,0,0,12.31-12.41q4.74-8.26,4.73-20.1t-4.54-20a30.56,30.56,0,0,0-12-12.31,32.76,32.76,0,0,0-16.16-4.15,32.15,32.15,0,0,0-16,4.15,29.45,29.45,0,0,0-11.72,12.31q-4.35,8.17-4.35,20,0,17.55,9,27.09A29.6,29.6,0,0,0,838,761.35,33.37,33.37,0,0,0,854.22,757.21Z"/><path class="cls-1" d="M952.12,673.41q8.16-4.63,19.4-4.65V692h-5.71c-8.8,0-15.46,2.25-20,6.7S939,710.92,939,722v57.12H916.57V670.56H939V686.3A35.23,35.23,0,0,1,952.12,673.41Z"/><path class="cls-1" d="M1125.93,751.1h-57.32l-9.85,28h-23.43L1084.38,642h26l49,137.08h-23.63Zm-6.3-18.32-22.25-63.6-22.46,63.6Z"/><path class="cls-1" d="M1180,695.37a49.56,49.56,0,0,1,44.61-26.61,50.81,50.81,0,0,1,21,4.65A42.7,42.7,0,0,1,1262,685.72v-52.4h22.65V779.07H1262V762.72a42,42,0,0,1-15.27,13,47.25,47.25,0,0,1-22.35,5.12,48.59,48.59,0,0,1-25.9-7.18,50.55,50.55,0,0,1-18.51-20.1q-6.81-12.9-6.8-29.24T1180,695.37Zm77.4,9.84a32.56,32.56,0,0,0-12.12-12.6,31.75,31.75,0,0,0-16.15-4.34,32.3,32.3,0,0,0-16.15,4.25,31.84,31.84,0,0,0-12.11,12.4q-4.62,8.18-4.64,19.4a40.43,40.43,0,0,0,4.64,19.68,32.65,32.65,0,0,0,12.21,12.92,31.33,31.33,0,0,0,16.05,4.43,31.74,31.74,0,0,0,16.15-4.33,32.33,32.33,0,0,0,12.12-12.71A39.93,39.93,0,0,0,1262,724.7,39.38,39.38,0,0,0,1257.41,705.21Z"/><path class="cls-1" d="M1333.53,773.85A50.19,50.19,0,0,1,1314,754.16q-7.08-12.7-7.08-29.46,0-16.53,7.29-29.33a50.3,50.3,0,0,1,19.89-19.7,60.85,60.85,0,0,1,56.33,0,50.37,50.37,0,0,1,19.89,19.7q7.29,12.79,7.29,29.33t-7.48,29.37a51.89,51.89,0,0,1-20.39,19.78,58.84,58.84,0,0,1-28.47,7A55.55,55.55,0,0,1,1333.53,773.85Zm44-16.64a31.53,31.53,0,0,0,12.31-12.41q4.73-8.26,4.72-20.1t-4.53-20a30.52,30.52,0,0,0-12-12.31,32.75,32.75,0,0,0-16.15-4.15,32.19,32.19,0,0,0-16.05,4.15,29.57,29.57,0,0,0-11.72,12.31q-4.35,8.17-4.34,20,0,17.55,9,27.09a29.6,29.6,0,0,0,22.55,9.56A33.38,33.38,0,0,0,1377.55,757.21Z"/><path class="cls-1" d="M1478,673.8a48.49,48.49,0,0,1,22.17-5,50,50,0,0,1,26,6.91,48.68,48.68,0,0,1,18.32,19.6q6.67,12.71,6.68,29.05a62.67,62.67,0,0,1-6.68,29.24,50.13,50.13,0,0,1-18.42,20.1,51.66,51.66,0,0,1-48.26,2.27,43.41,43.41,0,0,1-15.47-12.61v15.75H1439.9V633.32h22.44V686.7A42.84,42.84,0,0,1,1478,673.8Zm45.7,31.12a31.56,31.56,0,0,0-12.22-12.4,32.78,32.78,0,0,0-16.23-4.25,31.91,31.91,0,0,0-16.06,4.34,32.38,32.38,0,0,0-12.22,12.6,39.38,39.38,0,0,0-4.63,19.49,39.93,39.93,0,0,0,4.63,19.61,32,32,0,0,0,28.28,17,31.65,31.65,0,0,0,16.23-4.43A32.47,32.47,0,0,0,1523.7,744a40.31,40.31,0,0,0,4.63-19.68Q1528.33,713.09,1523.7,704.92Z"/><path class="cls-1" d="M1672.11,733.18h-82.92q1,13,9.65,20.89t21.27,7.87q18.11,0,25.6-15.16h24.23a48.75,48.75,0,0,1-17.82,24.5q-12.91,9.57-32,9.56a55.43,55.43,0,0,1-27.87-7,49.62,49.62,0,0,1-19.3-19.69q-7-12.7-7-29.46t6.8-29.43a47.66,47.66,0,0,1,19.1-19.6q12.29-6.9,28.26-6.91a55.47,55.47,0,0,1,27.38,6.7,47.29,47.29,0,0,1,18.7,18.82q6.72,12.12,6.7,27.87A69.58,69.58,0,0,1,1672.11,733.18Zm-22.65-18.13q-.2-12.4-8.86-19.87t-21.48-7.5a28.86,28.86,0,0,0-19.89,7.39q-8.28,7.38-9.85,20Z"/><path class="cls-1" d="M1768.6,642.19V779.07h-22.44V642.19Z"/><path class="cls-1" d="M1820.6,633.32V779.07h-22.44V633.32Z"/><path class="cls-1" d="M1872.6,633.32V779.07h-22.44V633.32Z"/><path class="cls-1" d="M2000.43,670.56V779.07H1978V766.28a36.12,36.12,0,0,1-13.88,10.52,44,44,0,0,1-18.21,3.84,48.49,48.49,0,0,1-23-5.32,38.1,38.1,0,0,1-16-15.74q-5.82-10.43-5.82-25.23V670.56h22.26V731q0,14.57,7.28,22.34t19.89,7.79c8.42,0,15.07-2.59,20-7.79S1978,740.73,1978,731V670.56Z"/><path class="cls-1" d="M2046.43,776.22a40.36,40.36,0,0,1-16.06-12.6,31.42,31.42,0,0,1-6.3-17.82h23.24a15.86,15.86,0,0,0,6.61,11.51q6,4.63,15.06,4.63c6.3,0,11.19-1.2,14.67-3.64s5.22-5.55,5.22-9.36q0-6.11-5.81-9.07t-18.42-6.5a176.26,176.26,0,0,1-19.89-6.49,34.9,34.9,0,0,1-13.29-9.65q-5.62-6.51-5.61-17.15a26.63,26.63,0,0,1,5.11-15.83,34.09,34.09,0,0,1,14.67-11.34,54.7,54.7,0,0,1,22-4.15q18.53,0,29.83,9.36t12.12,25.52H2087.1a16,16,0,0,0-5.92-11.64q-5.31-4.32-14.38-4.32-8.85,0-13.57,3.36a10.31,10.31,0,0,0-4.73,8.85,9.59,9.59,0,0,0,3.14,7.29,22.46,22.46,0,0,0,7.69,4.64c3,1.12,7.47,2.53,13.39,4.23a146.13,146.13,0,0,1,19.39,6.39,36.15,36.15,0,0,1,13.11,9.56q5.51,6.32,5.71,16.75a28,28,0,0,1-5.13,16.54,33.93,33.93,0,0,1-14.47,11.41q-9.36,4.14-22,4.14A54.71,54.71,0,0,1,2046.43,776.22Z"/><path class="cls-1" d="M2161.36,688.86v60.08c0,4.07.94,7,2.85,8.77s5.15,2.64,9.75,2.64h13.78v18.72H2170q-15.18,0-23.24-7.08c-5.39-4.75-8.08-12.41-8.08-23V688.86H2125.9v-18.3h12.81v-27h22.65v27h26.38v18.3Z"/><path class="cls-1" d="M2244,673.41c5.43-3.09,11.91-4.65,19.39-4.65V692h-5.71c-8.8,0-15.46,2.25-20,6.7s-6.8,12.22-6.8,23.25v57.12h-22.44V670.56h22.44V686.3A35.26,35.26,0,0,1,2244,673.41Z"/><path class="cls-1" d="M2283.37,695.37a49.55,49.55,0,0,1,44.41-26.61q12.79,0,22.35,5a45.49,45.49,0,0,1,15.27,12.5V670.56h22.65V779.07H2365.4V762.92a44.51,44.51,0,0,1-15.56,12.8,50.37,50.37,0,0,1-48.05-2.06,50.77,50.77,0,0,1-18.42-20.1q-6.81-12.9-6.8-29.24T2283.37,695.37Zm77.4,9.84a32.56,32.56,0,0,0-12.12-12.6,31.75,31.75,0,0,0-16.15-4.34,32.26,32.26,0,0,0-16.14,4.25,31.79,31.79,0,0,0-12.12,12.4q-4.62,8.18-4.63,19.4a40.42,40.42,0,0,0,4.63,19.68,32.65,32.65,0,0,0,12.21,12.92,31.33,31.33,0,0,0,16.05,4.43,31.74,31.74,0,0,0,16.15-4.33,32.33,32.33,0,0,0,12.12-12.71,39.93,39.93,0,0,0,4.63-19.61A39.38,39.38,0,0,0,2360.77,705.21Z"/><path class="cls-1" d="M2443.79,688.86v60.08c0,4.07.94,7,2.85,8.77s5.14,2.64,9.74,2.64h13.79v18.72h-17.71q-15.18,0-23.25-7.08c-5.38-4.75-8.07-12.41-8.07-23V688.86h-12.81v-18.3h12.81v-27h22.65v27h26.38v18.3Z"/><path class="cls-1" d="M2510.16,773.85a50.19,50.19,0,0,1-19.51-19.69q-7.09-12.7-7.08-29.46,0-16.53,7.29-29.33a50.3,50.3,0,0,1,19.89-19.7,60.85,60.85,0,0,1,56.33,0,50.37,50.37,0,0,1,19.89,19.7q7.29,12.79,7.29,29.33t-7.48,29.37a51.89,51.89,0,0,1-20.39,19.78,58.84,58.84,0,0,1-28.47,7A55.55,55.55,0,0,1,2510.16,773.85Zm44-16.64a31.59,31.59,0,0,0,12.31-12.41q4.73-8.26,4.72-20.1t-4.53-20a30.58,30.58,0,0,0-12-12.31,32.75,32.75,0,0,0-16.15-4.15,32.19,32.19,0,0,0-16.05,4.15,29.57,29.57,0,0,0-11.72,12.31q-4.35,8.17-4.34,20,0,17.55,9,27.09a29.6,29.6,0,0,0,22.55,9.56A33.38,33.38,0,0,0,2554.18,757.21Z"/><path class="cls-1" d="M2652.08,673.41c5.43-3.09,11.91-4.65,19.39-4.65V692h-5.7c-8.8,0-15.47,2.25-20,6.7S2639,710.92,2639,722v57.12h-22.44V670.56H2639V686.3A35.16,35.16,0,0,1,2652.08,673.41Z"/></g></g></svg>