<?xml version="1.0" encoding="utf-8"?>
<!-- Generator: Adobe Illustrator 25.2.0, SVG Export Plug-In . SVG Version: 6.00 Build 0)  -->
<svg version="1.1" id="Layer_1" xmlns="http://www.w3.org/2000/svg" xmlns:xlink="http://www.w3.org/1999/xlink" x="0px" y="0px"
	 viewBox="0 0 500 456.4" style="enable-background:new 0 0 500 456.4;" xml:space="preserve">
<style type="text/css">
	.st0{fill:#003049;}
</style>
<g>
	<circle class="st0" cx="194.9" cy="211.3" r="78.7"/>
	<path class="st0" d="M389.8,210c-0.7-107-87.7-193.6-194.9-193.6C87.3,16.4,0,103.7,0,211.3s87.3,194.9,194.9,194.9
		c5.1,0,10.2-0.2,15.3-0.6v0.6h130.3c27.3,0,49.4-22.1,49.4-49.4l0,0L389.8,210L389.8,210z M47.8,211.3c0-81.2,65.9-147,147-146.9
		s147,65.9,146.9,147c0,81.2-65.8,146.9-147,146.9C113.7,358.3,47.9,292.5,47.8,211.3L47.8,211.3L47.8,211.3z"/>
	<path class="st0" d="M484.1,371L484.1,371l-70.5-0.1c-9.8,0-17.7,7.9-17.7,17.7c0,9.8,7.9,17.7,17.7,17.7h51v32.4
		c0,9.8,7.9,17.7,17.7,17.7c9.8,0,17.7-7.9,17.7-17.7l0,0v-50.1C500,379.5,493.1,371.9,484.1,371z"/>
	<path class="st0" d="M392.1,129.8L392.1,129.8l42.1-10l0,0c-11.8-50-43.2-93.2-87.1-119.8l-22.7,36.9
		C358.6,57.5,382.9,91,392.1,129.8z"/>
</g>
</svg>
