<?xml version="1.0" standalone="no"?>
<!DOCTYPE svg PUBLIC "-//W3C//DTD SVG 20010904//EN"
 "http://www.w3.org/TR/2001/REC-SVG-20010904/DTD/svg10.dtd">
<svg version="1.0" xmlns="http://www.w3.org/2000/svg"
 width="512.000000pt" height="512.000000pt" viewBox="0 0 512.000000 512.000000"
 preserveAspectRatio="xMidYMid meet">
<metadata>
Created by potrace 1.11, written by Peter Selinger 2001-2013
</metadata>
<g transform="translate(0.000000,512.000000) scale(0.100000,-0.100000)"
fill="#000000" stroke="none">
<path d="M3396 4606 c-58 -96 -106 -178 -106 -182 0 -5 31 -29 67 -54 92 -62
262 -227 339 -330 81 -107 174 -289 214 -419 17 -56 36 -101 42 -101 16 0 391
90 396 95 8 8 -50 193 -93 295 -79 185 -202 379 -332 523 -108 119 -295 275
-409 340 -7 4 -54 -63 -118 -167z"/>
<path d="M1821 4609 c-225 -24 -434 -87 -651 -196 -365 -183 -642 -458 -829
-823 -353 -688 -259 -1499 243 -2097 249 -298 618 -523 1003 -613 199 -47 266
-50 1116 -50 517 0 818 4 847 11 74 17 168 69 223 124 60 58 120 166 136 243
15 71 15 1574 0 1710 -26 243 -85 441 -196 662 -184 367 -466 649 -833 833
-336 169 -689 234 -1059 196z m441 -479 c607 -104 1078 -584 1173 -1195 22
-141 16 -378 -14 -506 -66 -288 -184 -503 -390 -710 -220 -220 -474 -352 -775
-404 -117 -20 -346 -20 -467 1 -523 89 -960 467 -1122 970 -49 152 -67 271
-67 439 0 162 16 274 61 419 124 401 427 735 814 897 97 41 251 84 350 98 113
16 316 12 437 -9z"/>
<path d="M1915 3483 c-240 -33 -465 -197 -574 -418 -61 -122 -75 -189 -75
-340 0 -151 14 -217 74 -340 96 -195 277 -344 490 -402 90 -24 300 -24 390 0
211 57 394 208 490 402 58 119 74 189 74 335 1 176 -29 282 -121 424 -157 243
-457 379 -748 339z"/>
<path d="M4060 1148 c-103 -70 -109 -212 -12 -286 l35 -27 281 -5 281 -5 5
-190 c5 -180 6 -192 29 -224 27 -38 91 -70 139 -71 66 0 138 50 161 113 7 18
11 135 11 308 0 259 -1 283 -20 319 -11 21 -34 49 -52 62 l-33 23 -396 3 -395
3 -34 -23z"/>
</g>
</svg>
